# xmcd
# 
# Track frame offsets:
#     150
#     68330
#     102029
#     147395
#     235826
#     266661
# 
# Disc length: 3945
# 
# Revision: 1
# Processed by: cddbd v1.5.2PL0 Copyright (c) Steve Scherf et al.
# Submitted via: fre:ac v1.0.27
# 
DISCID=4a0f6706
DTITLE=Keith Jarrett-Gary Peacock-Jack DeJohnette - Somewhere
DYEAR=2013
DGENRE=Jazz
TTITLE0=Deep Space - Solar (Live)
TTITLE1=Stars Fell On Alabama (Live)
TTITLE2=Between The Devil And The Deep Blue Sea (Live)
TTITLE3=Somewhere - Everywhere (Live)
TTITLE4=Tonight (Live)
TTITLE5=I Thought About You (Live)
EXTD=
EXTT0=
EXTT1=
EXTT2=
EXTT3=
EXTT4=
EXTT5=
PLAYORDER=
